<?xml version="1.0" encoding="UTF-8"?>
<!DOCTYPE svg PUBLIC "-//W3C//DTD SVG 1.0//EN" "http://www.w3.org/TR/2001/REC-SVG-20010904/DTD/svg10.dtd">
<!-- Creator: CorelDRAW -->
<svg xmlns="http://www.w3.org/2000/svg" xml:space="preserve" width="12.7076mm" height="3.3859mm" version="1.0" style="shape-rendering:geometricPrecision; text-rendering:geometricPrecision; image-rendering:optimizeQuality; fill-rule:evenodd; clip-rule:evenodd"
viewBox="0 0 64.07 17.07"
 xmlns:xlink="http://www.w3.org/1999/xlink"
 xmlns:xodm="http://www.corel.com/coreldraw/odm/2003">
 <defs>
  <style type="text/css">
   <![CDATA[
    .fil0 {fill:#FEFEFE;fill-rule:nonzero}
   ]]>
  </style>
 </defs>
 <g id="Layer_x0020_1">
  <metadata id="CorelCorpID_0Corel-Layer"/>
  <path class="fil0" d="M51.62 11.91l2.56 0 4.58 0c1.43,0 2.52,-0.94 2.52,-3.03 0,-2.09 -1.09,-3.03 -2.52,-3.03 -1.43,0 -2.53,0.94 -2.53,3.03 0,0.62 0.1,1.14 0.27,1.56l-2.89 0c-0.1,-0.48 -0.16,-0.99 -0.16,-1.56 0,-3.84 2.63,-5.49 5.31,-5.49 2.65,0 5.31,1.64 5.31,5.49 0,3.84 -2.63,5.49 -5.31,5.49l-7.14 0 0 -2.47 -0.01 0.01zm-45.15 -0.7l0 -3.43c0,-1.06 -0.87,-1.93 -1.93,-1.93 -1.06,0 -1.93,0.87 -1.93,1.93l0 2.74 3.85 3.33 0 3.23 -6.46 -5.24 0 -4.05c0,-2.49 2.04,-4.54 4.54,-4.54 1.2,0 2.39,0.5 3.23,1.36 0.86,-0.87 2,-1.36 3.23,-1.36 2.49,0 4.54,2.04 4.54,4.54l0 6.37 -2.61 0 0 -6.37c0,-1.06 -0.86,-1.93 -1.93,-1.93 -1.06,0 -1.93,0.87 -1.93,1.93l0 5.56 -2.61 -2.13zm25.18 -6.06l0 -5.15 -2.95 0 0 14.15 2.95 0 0 -1.52c0.39,0.92 1.53,1.72 3.1,1.72 2.2,0 4.61,-1.58 4.61,-5.45 0,-3.07 -1.52,-4.7 -3.24,-5.24 -1.54,-0.49 -3.76,-0.15 -4.47,1.49l0 0.01zm2.39 6.74c-1.29,0 -2.5,-0.95 -2.5,-3 0,-2.05 1.21,-3 2.5,-3 1.31,0 2.52,0.95 2.52,3 0,2.05 -1.21,3 -2.52,3zm6.9 2.24l2.95 0 0 -10.5 -2.95 0 0 10.5zm8.08 -7.95l-0.08 0 0 -2.54 -2.95 0 0 10.5 2.95 0 0 -4.65c0,-2.54 1.52,-3.41 3.1,-3.41 0.26,0 0.51,0.02 0.82,0.06l0 -2.5c-1.79,-0.45 -3.39,0.57 -3.84,2.54l0 0zm-29.91 -2.2c-0.97,0.51 -1.53,1.45 -1.53,3.1l2.78 -0.02c0,-1.12 0.69,-1.46 1.72,-1.46 1.14,0 1.57,0.42 1.57,1.57 0,0.69 -0.15,0.92 -1.05,1.03l-2.01 0.26c-1.7,0.21 -3.62,0.72 -3.62,2.98 0,2.11 1.7,2.91 3.39,2.91 2.3,0 3.21,-1.5 3.34,-2.03l0.1 0 0 1.83 2.8 0 0 -7.26c0,-1.8 -0.77,-2.89 -2.6,-3.29 -1.36,-0.3 -3.68,-0.25 -4.87,0.37l-0.01 0.01zm2.34 8.23c-1.93,0 -2.3,-1.92 -0.13,-2.3 0.62,-0.1 1.94,-0.18 2.34,-0.62 0,1.51 -0.03,2.61 -2.2,2.92z"/>
 </g>
</svg>
