<?xml version="1.0" encoding="UTF-8"?>
<!DOCTYPE svg PUBLIC "-//W3C//DTD SVG 1.0//EN" "http://www.w3.org/TR/2001/REC-SVG-20010904/DTD/svg10.dtd">
<!-- Creator: CorelDRAW -->
<svg xmlns="http://www.w3.org/2000/svg" xml:space="preserve" width="12.7076mm" height="3.3859mm" version="1.0" style="shape-rendering:geometricPrecision; text-rendering:geometricPrecision; image-rendering:optimizeQuality; fill-rule:evenodd; clip-rule:evenodd"
viewBox="0 0 61.97 16.51"
 xmlns:xlink="http://www.w3.org/1999/xlink"
 xmlns:xodm="http://www.corel.com/coreldraw/odm/2003">
 <defs>
  <style type="text/css">
   <![CDATA[
    .fil0 {fill:#4E1DE0;fill-rule:nonzero}
   ]]>
  </style>
 </defs>
 <g id="Layer_x0020_1">
  <metadata id="CorelCorpID_0Corel-Layer"/>
  <path class="fil0" d="M49.92 11.51l2.48 0 4.43 0c1.38,0 2.43,-0.91 2.43,-2.93 0,-2.02 -1.05,-2.93 -2.43,-2.93 -1.38,0 -2.44,0.91 -2.44,2.93 0,0.6 0.09,1.11 0.26,1.51l-2.79 0c-0.1,-0.46 -0.16,-0.96 -0.16,-1.51 0,-3.71 2.54,-5.31 5.14,-5.31 2.56,0 5.14,1.59 5.14,5.31 0,3.72 -2.54,5.31 -5.14,5.31l-6.9 0 0 -2.39 -0.01 0.01zm-43.67 -0.67l0 -3.32c0,-1.02 -0.84,-1.86 -1.86,-1.86 -1.02,0 -1.86,0.84 -1.86,1.86l0 2.65 3.72 3.22 0 3.13 -6.25 -5.07 0 -3.92c0,-2.41 1.97,-4.39 4.39,-4.39 1.16,0 2.31,0.48 3.13,1.32 0.83,-0.84 1.94,-1.32 3.12,-1.32 2.41,0 4.39,1.97 4.39,4.39l0 6.16 -2.53 0 0 -6.16c0,-1.02 -0.83,-1.86 -1.86,-1.86 -1.02,0 -1.86,0.84 -1.86,1.86l0 5.37 -2.53 -2.06zm24.36 -5.86l0 -4.98 -2.85 0 0 13.68 2.85 0 0 -1.47c0.38,0.89 1.48,1.66 3,1.66 2.13,0 4.46,-1.53 4.46,-5.27 0,-2.97 -1.47,-4.54 -3.13,-5.07 -1.49,-0.47 -3.64,-0.15 -4.32,1.44l0 0.01zm2.31 6.52c-1.24,0 -2.41,-0.92 -2.41,-2.9 0,-1.98 1.17,-2.9 2.41,-2.9 1.26,0 2.43,0.92 2.43,2.9 0,1.98 -1.17,2.9 -2.43,2.9zm6.67 2.17l2.85 0 0 -10.16 -2.85 0 0 10.16zm7.82 -7.69l-0.07 0 0 -2.45 -2.85 0 0 10.16 2.85 0 0 -4.5c0,-2.45 1.47,-3.3 3,-3.3 0.25,0 0.49,0.02 0.79,0.06l0 -2.42c-1.73,-0.43 -3.28,0.55 -3.72,2.45l0 0zm-28.93 -2.13c-0.94,0.49 -1.48,1.4 -1.48,3l2.69 -0.02c0,-1.09 0.66,-1.41 1.66,-1.41 1.11,0 1.52,0.41 1.52,1.52 0,0.66 -0.15,0.89 -1.01,1l-1.95 0.25c-1.64,0.2 -3.5,0.7 -3.5,2.88 0,2.04 1.64,2.81 3.28,2.81 2.22,0 3.11,-1.45 3.23,-1.96l0.09 0 0 1.77 2.71 0 0 -7.02c0,-1.74 -0.75,-2.79 -2.52,-3.18 -1.32,-0.29 -3.56,-0.24 -4.71,0.36l-0.01 0.01zm2.27 7.96c-1.86,0 -2.22,-1.85 -0.13,-2.22 0.6,-0.09 1.87,-0.18 2.26,-0.6 0,1.46 -0.03,2.53 -2.13,2.82z"/>
 </g>
</svg>
