<?xml version="1.0" encoding="UTF-8"?>
<!DOCTYPE svg PUBLIC "-//W3C//DTD SVG 1.0//EN" "http://www.w3.org/TR/2001/REC-SVG-20010904/DTD/svg10.dtd">
<!-- Creator: CorelDRAW -->
<svg xmlns="http://www.w3.org/2000/svg" xml:space="preserve" width="2.7564mm" height="2.4576mm" version="1.0" style="shape-rendering:geometricPrecision; text-rendering:geometricPrecision; image-rendering:optimizeQuality; fill-rule:evenodd; clip-rule:evenodd"
viewBox="0 0 2.55 2.27"
 xmlns:xlink="http://www.w3.org/1999/xlink"
 xmlns:xodm="http://www.corel.com/coreldraw/odm/2003">
 <defs>
  <style type="text/css">
   <![CDATA[
    .fil0 {fill:#4E1DE0;fill-rule:nonzero}
   ]]>
  </style>
 </defs>
 <g id="Layer_x0020_1">
  <metadata id="CorelCorpID_0Corel-Layer"/>
  <path class="fil0" d="M1.06 1.31l0 -0.56c0,-0.09 -0.03,-0.17 -0.09,-0.22l-0 0c-0.06,-0.06 -0.14,-0.09 -0.22,-0.09 -0.09,0 -0.17,0.03 -0.22,0.09 -0.06,0.06 -0.09,0.14 -0.09,0.22l0 0.45 0.63 0.55 0 0.53 -1.06 -0.86 0 -0.67c0,-0.2 0.08,-0.39 0.22,-0.52l0 -0c0.13,-0.13 0.32,-0.22 0.52,-0.22 0.2,0 0.39,0.08 0.53,0.22l0.01 0.01 0 -0c0.13,-0.13 0.32,-0.22 0.53,-0.22 0.2,0 0.39,0.08 0.52,0.22l0 0c0.13,0.13 0.22,0.32 0.22,0.52l0 1.05 -0.43 0 0 -1.05c0,-0.09 -0.03,-0.17 -0.09,-0.22 -0.06,-0.06 -0.14,-0.09 -0.22,-0.09 -0.09,0 -0.17,0.03 -0.22,0.09l-0 0c-0.06,0.06 -0.09,0.14 -0.09,0.22l0 0.91 -0.43 -0.35 0 0z"/>
 </g>
</svg>
